<?xml version="1.0" encoding="UTF-8"?>
<svg version="1.1" xmlns="http://www.w3.org/2000/svg" width="1456" height="800">
<path d="M0 0 C364.64128275 -0.20200738 364.64128275 -0.20200738 503.80414093 -0.24082482 C505.75772647 -0.2413717 507.71131201 -0.2419188 509.66489755 -0.24246611 C510.64444417 -0.24274049 511.6239908 -0.24301487 512.63322066 -0.24329756 C547.24147152 -0.25300555 581.84972227 -0.26304006 616.45797286 -0.27364628 C619.7612474 -0.27465575 623.06452194 -0.27565664 626.36779647 -0.27665544 C676.96704458 -0.29198704 727.56628666 -0.3115045 778.16552734 -0.34332275 C779.25417924 -0.34400725 780.34283113 -0.34469174 781.46447247 -0.34539698 C799.01748011 -0.35645924 816.57048752 -0.36787713 834.1234949 -0.3793422 C884.66326435 -0.41234776 935.2030292 -0.44273662 985.74280834 -0.45569897 C986.78146747 -0.45596664 987.82012659 -0.45623432 988.89026023 -0.4565101 C1011.68784115 -0.46233806 1034.48542213 -0.46681273 1057.28300357 -0.47000491 C1066.45509452 -0.47131308 1075.62718544 -0.47281617 1084.79927635 -0.47438622 C1085.80314028 -0.47455335 1086.8070042 -0.47472049 1087.84128825 -0.47489269 C1120.22013139 -0.48038059 1152.59894029 -0.50175514 1184.9777696 -0.53141104 C1217.57717279 -0.56119658 1250.1765427 -0.57550681 1282.77595985 -0.56811994 C1287.2747007 -0.56710445 1291.77344156 -0.56626757 1296.27218246 -0.56553841 C1297.15411043 -0.565389 1298.0360384 -0.5652396 1298.94469146 -0.56508567 C1312.94345053 -0.56317794 1326.94213947 -0.57814376 1340.9408794 -0.60004931 C1354.68583796 -0.62121431 1368.43070508 -0.62474478 1382.1756722 -0.60915907 C1390.24713904 -0.6005479 1398.31831699 -0.60582319 1406.38975048 -0.63108501 C1412.36238227 -0.64827214 1418.33467241 -0.63973794 1424.30731127 -0.62069988 C1426.72310481 -0.6170982 1429.13892839 -0.62206631 1431.55468341 -0.63617622 C1434.81150061 -0.65400796 1438.06678378 -0.64156906 1441.32355005 -0.62099248 C1442.74712486 -0.63980906 1442.74712486 -0.63980906 1444.19945877 -0.65900577 C1446.57333675 -0.62657368 1448.69377566 -0.56151665 1451 0 C1453.55618123 2.85558825 1454 4.18407165 1454 8 C1453.34 8 1452.68 8 1452 8 C1451.99576806 9.2102053 1451.99153612 10.42041059 1451.98717594 11.66728878 C1451.88660031 40.36547003 1451.78091033 69.06362941 1451.66888306 97.76176819 C1451.65511272 101.29047878 1451.64138574 104.81918953 1451.62768555 108.34790039 C1451.62495724 109.05043255 1451.62222894 109.75296471 1451.61941796 110.47678573 C1451.57528766 121.86688736 1451.53467312 133.25699897 1451.49534739 144.64711808 C1451.45494744 156.32581651 1451.41071907 168.00449572 1451.36312145 179.68316704 C1451.3364943 186.24651479 1451.31164066 192.80985878 1451.29092598 199.37322807 C1451.2713989 205.54302553 1451.24726714 211.71278735 1451.21950912 217.8825531 C1451.21011779 220.15421975 1451.20245008 222.42589423 1451.19658089 224.69757271 C1451.18835493 227.78450024 1451.17408845 230.87134045 1451.15821838 233.95823669 C1451.15724028 234.8696967 1451.15626217 235.78115671 1451.15525442 236.72023672 C1451.11412121 242.88587879 1451.11412121 242.88587879 1450 244 C1449.90010364 246.42619594 1449.86557938 248.82398318 1449.87301636 251.25073242 C1449.87145637 252.01858912 1449.86989638 252.78644583 1449.86828911 253.57757092 C1449.86427612 256.17022261 1449.8674699 258.76281654 1449.87060547 261.35546875 C1449.86925156 263.20618728 1449.86747169 265.05690554 1449.86529541 266.90762329 C1449.86071984 271.94879944 1449.86251114 276.98995522 1449.8656745 282.03113174 C1449.86819746 287.29443672 1449.86586074 292.55773989 1449.86428833 297.82104492 C1449.86246645 306.6616243 1449.86487343 315.50219533 1449.86962891 324.34277344 C1449.87507156 334.57938016 1449.87330892 344.81596697 1449.8678025 355.0525732 C1449.8632719 363.82451263 1449.86262056 372.59644605 1449.86524117 381.36838627 C1449.86680424 386.61492807 1449.8669969 391.8614605 1449.86370468 397.10800171 C1449.86082674 402.03924878 1449.86280024 406.97047005 1449.86859894 411.90171432 C1449.86992695 413.71703422 1449.86953173 415.53235627 1449.86733627 417.34767532 C1449.86462637 419.81490257 1449.86800391 422.28204577 1449.87301636 424.74926758 C1449.87078564 425.4771709 1449.86855491 426.20507421 1449.86625659 426.95503521 C1449.59240637 430.26032547 1449.59240637 430.26032547 1451 433 C1451.09636838 434.78427187 1451.12187453 436.57239653 1451.12025452 438.35926819 C1451.12162918 439.52179611 1451.12300385 440.68432404 1451.12442017 441.88208008 C1451.12082489 443.16888672 1451.11722961 444.45569336 1451.11352539 445.78149414 C1451.11324352 447.14123024 1451.11340125 448.5009665 1451.1139679 449.86070251 C1451.11425587 453.56301778 1451.10835912 457.26530092 1451.10139394 460.96760869 C1451.09516043 464.83268781 1451.0945566 468.69776758 1451.09336853 472.56285095 C1451.09025521 479.88684682 1451.0820418 487.21082784 1451.07201904 494.53481716 C1451.06085794 502.87083448 1451.05534746 511.20685249 1451.05032361 519.54287541 C1451.03985919 536.69525888 1451.02225973 553.84762787 1451 571 C1450.34 571 1449.68 571 1449 571 C1448.5978125 571.928125 1448.5978125 571.928125 1448.1875 572.875 C1447 575 1447 575 1444 577 C1442.68 577 1441.36 577 1440 577 C1439.67 578.32 1439.34 579.64 1439 581 C1438.34 581 1437.68 581 1437 581 C1437.103125 581.66 1437.20625 582.32 1437.3125 583 C1436.92071634 586.76112317 1435.45001502 588.76546899 1433.37890625 591.86328125 C1431.28649637 595.10562744 1429.67475598 598.52643204 1428 602 C1427.34 602 1426.68 602 1426 602 C1425.87625 603.11375 1425.87625 603.11375 1425.75 604.25 C1424.8373439 607.59640572 1423.46714711 608.60334281 1421 611 C1420.01232824 612.75232087 1419.02566044 614.50540036 1418.06640625 616.2734375 C1416.44354076 618.900934 1414.2027155 620.85235239 1412 623 C1411.38125 623.969375 1410.7625 624.93875 1410.125 625.9375 C1407.9169478 629.11969287 1405.64255519 631.136301 1402.6640625 633.55078125 C1400.7880754 635.0893902 1400.7880754 635.0893902 1398.875 637.75 C1396.74085792 640.31097049 1395.05816073 640.8428581 1392 642 C1391.67 642.99 1391.34 643.98 1391 645 C1388.4375 646.1875 1388.4375 646.1875 1386 647 C1386 647.66 1386 648.32 1386 649 C1385.01 649 1384.02 649 1383 649 C1382.67 649.99 1382.34 650.98 1382 652 C1380.28515625 653.140625 1380.28515625 653.140625 1378.0625 654.25 C1374.59710544 656.04756901 1371.49345334 658.03239043 1368.359375 660.35546875 C1363.22319173 663.98475331 1357.96645505 666.6150778 1352.1875 669.0625 C1351.19339111 669.48732666 1350.19928223 669.91215332 1349.17504883 670.34985352 C1326.95137653 679.60311379 1304.98729203 683.67605103 1281 683 C1281.020625 684.27875 1281.04125 685.5575 1281.0625 686.875 C1281.125 690.75 1281.125 690.75 1280 693 C1279.34 693 1278.68 693 1278 693 C1278.02320313 693.91523437 1278.04640625 694.83046875 1278.0703125 695.7734375 C1278.08835937 696.96195313 1278.10640625 698.15046875 1278.125 699.375 C1278.14820313 700.55835938 1278.17140625 701.74171875 1278.1953125 702.9609375 C1278 706 1278 706 1276 708 C1275.61550947 709.90744816 1275.61550947 709.90744816 1275.5 712 C1275.22222222 715.77777778 1275.22222222 715.77777778 1273 718 C1272.31060191 720.32671854 1271.64533078 722.66067594 1271 725 C1270.37530495 726.35350594 1269.7283669 727.69934483 1269 729 C1268.34 729 1267.68 729 1267 729 C1266.896875 729.886875 1266.79375 730.77375 1266.6875 731.6875 C1265.98284093 735.0826755 1265.0445434 737.21942098 1263 740 C1262.34 740 1261.68 740 1261 740 C1260.71125 740.5775 1260.4225 741.155 1260.125 741.75 C1259.08333333 743.83333333 1258.04166667 745.91666667 1257 748 C1256.34 748 1255.68 748 1255 748 C1255 748.99 1255 749.98 1255 751 C1253.625 752.6875 1253.625 752.6875 1252 754 C1251.34 754 1250.68 754 1250 754 C1249.7421875 754.58136719 1249.484375 755.16273438 1249.21875 755.76171875 C1245.56245558 762.47664408 1238.76415478 767.14005058 1232.53125 771.2890625 C1230.01880762 772.94039695 1230.01880762 772.94039695 1227.84375 774.7109375 C1213.35138445 785.98844731 1190.51804716 793.36427518 1172.16015625 793.265625 C1170.94965858 793.26849518 1170.94965858 793.26849518 1169.71470642 793.27142334 C1168.021471 793.27277388 1166.32822482 793.26915729 1164.63500977 793.26074219 C1162.07218684 793.25004045 1159.51006698 793.26066892 1156.94726562 793.2734375 C1148.77436362 793.28128951 1140.92490539 793.24574976 1133 791 C1132.30511475 790.81244141 1131.61022949 790.62488281 1130.89428711 790.43164062 C1128.89462875 789.8670312 1126.91624411 789.25875265 1124.9375 788.625 C1123.90290649 788.29628906 1123.90290649 788.29628906 1122.84741211 787.9609375 C1117.71597825 786.29858247 1112.8059945 784.4453201 1108 782 C1107.28972656 781.64421875 1106.57945313 781.2884375 1105.84765625 780.921875 C1100.38212468 778.04022391 1095.47923497 774.55342172 1090.53125 770.86328125 C1088.49481232 769.36423685 1086.4501577 767.97111936 1084.3125 766.625 C1083.1678125 765.820625 1083.1678125 765.820625 1082 765 C1082 764.34 1082 763.68 1082 763 C1081.443125 762.79375 1080.88625 762.5875 1080.3125 762.375 C1077.71729239 760.83190358 1076.15950158 758.94580325 1074.3046875 756.58984375 C1072.8291978 754.73285361 1072.8291978 754.73285361 1070.1875 752.25 C1068 750 1068 750 1068 748 C1067.34 748 1066.68 748 1066 748 C1064.2734375 745.6640625 1064.2734375 745.6640625 1062.375 742.625 C1061.42753906 741.12839844 1061.42753906 741.12839844 1060.4609375 739.6015625 C1059 737 1059 737 1059 735 C1058.34 735 1057.68 735 1057 735 C1056.731875 734.29875 1056.46375 733.5975 1056.1875 732.875 C1055.03497478 729.97507245 1055.03497478 729.97507245 1053.5625 727.1875 C1052.33756747 724.68863764 1051.32800049 722.29081843 1050.375 719.6875 C1049.3814547 716.24295658 1049.3814547 716.24295658 1048 715 C1047.85884839 712.32941149 1047.95752893 709.67567762 1048 707 C1047.34 707 1046.68 707 1046 707 C1044.85922343 703.57767028 1044.90184883 700.91326783 1044.9375 697.3125 C1044.94652344 696.13300781 1044.95554687 694.95351563 1044.96484375 693.73828125 C1044.97644531 692.83464844 1044.98804688 691.93101562 1045 691 C1044.34 691 1043.68 691 1043 691 C1042.67 688.69 1042.34 686.38 1042 684 C1032.40341435 683.97684711 1022.80683829 683.95906984 1013.21023083 683.94818783 C1008.75432029 683.94296547 1004.29842885 683.93587951 999.8425293 683.92456055 C995.5437177 683.91370875 991.24492447 683.90771828 986.94610023 683.90512276 C985.3046267 683.90327266 983.66315419 683.89965996 982.02168846 683.89426994 C979.72561836 683.88702912 977.42962457 683.88601035 975.13354492 683.88647461 C973.82560471 683.884254 972.51766449 683.88203339 971.17008972 683.87974548 C967.97492823 683.85278009 967.97492823 683.85278009 965 685 C965.03480469 686.91425781 965.03480469 686.91425781 965.0703125 688.8671875 C965.08906829 690.5364525 965.10726869 692.2057238 965.125 693.875 C965.14175781 694.71675781 965.15851562 695.55851563 965.17578125 696.42578125 C965.18544922 697.63427734 965.18544922 697.63427734 965.1953125 698.8671875 C965.21102295 699.98262939 965.21102295 699.98262939 965.22705078 701.12060547 C965 703 965 703 963 705 C962.61550947 706.90744816 962.61550947 706.90744816 962.5 709 C962.22222222 712.77777778 962.22222222 712.77777778 960 715 C959.55782847 716.59862014 959.11814957 718.19797366 958.69140625 719.80078125 C956.57172963 726.54302949 953.58720228 732.62190077 949 738 C947.75983331 740.6794645 947.75983331 740.6794645 947 743 C946.34 743 945.68 743 945 743 C945 743.99 945 744.98 945 746 C944.34 746 943.68 746 943 746 C942.773125 746.53625 942.54625 747.0725 942.3125 747.625 C940.54429911 750.82460161 938.46329797 753.29037223 936 756 C935.34 756 934.68 756 934 756 C933.67 756.99 933.34 757.98 933 759 C932.34 759 931.68 759 931 759 C930.73316406 759.60070312 930.46632813 760.20140625 930.19140625 760.8203125 C923.04493352 773.89484294 899.56730262 783.81166874 886 788 C885.09535004 788.2981662 885.09535004 788.2981662 884.17242432 788.60235596 C872.95932093 792.2776407 862.74197427 793.72857529 850.95605469 793.48706055 C848.47280103 793.43695115 845.9915308 793.42551584 843.5078125 793.41992188 C835.47649502 793.36411168 827.79667372 793.1146927 820 791 C818.81881592 790.70452271 818.81881592 790.70452271 817.61376953 790.40307617 C799.01590969 785.59996376 783.15848251 777.59811935 768.828125 764.63671875 C767.09718732 763.08701172 765.31659714 761.63483557 763.5 760.1875 C762.675 759.465625 761.85 758.74375 761 758 C761 757.34 761 756.68 761 756 C760.01 755.67 759.02 755.34 758 755 C755 751.55555556 755 751.55555556 755 749 C754.34 749 753.68 749 753 749 C751.6273318 747.02678947 750.29572383 745.02456848 749 743 C748.34 742.34 747.68 741.68 747 741 C747 739.68 747 738.36 747 737 C746.01 736.67 745.02 736.34 744 736 C744 734.68 744 733.36 744 732 C743.01 731.67 742.02 731.34 741 731 C741 729.35 741 727.7 741 726 C740.01 725.67 739.02 725.34 738 725 C737 722.4375 737 722.4375 736 719 C735.484375 717.80375 734.96875 716.6075 734.4375 715.375 C732.68227124 710.8465098 732.50983401 706.35663244 732.30859375 701.5390625 C732.2445581 698.83347242 732.2445581 698.83347242 730 697 C729.67 692.71 729.34 688.42 729 684 C488.43 683.67 247.86 683.34 0 683 C0 457.61 0 232.22 0 0 Z " fill="#FEA41D" transform="translate(0,0)"/>
<path d="M0 0 C44.38321881 -0.02745598 88.76643822 -0.05384962 133.1496582 -0.0793457 C134.45234925 -0.08009419 134.45234925 -0.08009419 135.78135729 -0.08085779 C228.81242054 -0.13427959 321.84348401 -0.18039898 414.8745575 -0.2117157 C416.94033023 -0.21241295 419.00610295 -0.21311021 421.07187568 -0.21380747 C464.43015057 -0.22841996 507.78842573 -0.24200364 551.14670131 -0.25439839 C572.92603508 -0.26062551 594.70536879 -0.26705038 616.48470245 -0.27366221 C619.77009377 -0.27465845 623.05548509 -0.27564904 626.34087641 -0.2766394 C676.94909787 -0.29194469 727.55731333 -0.31149886 778.16552734 -0.34332275 C779.25417924 -0.34400725 780.34283113 -0.34469174 781.46447247 -0.34539698 C799.01748011 -0.35645924 816.57048752 -0.36787713 834.1234949 -0.3793422 C884.66326435 -0.41234776 935.2030292 -0.44273662 985.74280834 -0.45569897 C986.78146747 -0.45596664 987.82012659 -0.45623432 988.89026023 -0.4565101 C1011.68784115 -0.46233806 1034.48542213 -0.46681273 1057.28300357 -0.47000491 C1066.45509452 -0.47131308 1075.62718544 -0.47281617 1084.79927635 -0.47438622 C1085.80314028 -0.47455335 1086.8070042 -0.47472049 1087.84128825 -0.47489269 C1120.22013139 -0.48038059 1152.59894029 -0.50175514 1184.9777696 -0.53141104 C1217.57717279 -0.56119658 1250.1765427 -0.57550681 1282.77595985 -0.56811994 C1287.2747007 -0.56710445 1291.77344156 -0.56626757 1296.27218246 -0.56553841 C1297.15411043 -0.565389 1298.0360384 -0.5652396 1298.94469146 -0.56508567 C1312.94345053 -0.56317794 1326.94213947 -0.57814376 1340.9408794 -0.60004931 C1354.68583796 -0.62121431 1368.43070508 -0.62474478 1382.1756722 -0.60915907 C1390.24713904 -0.6005479 1398.31831699 -0.60582319 1406.38975048 -0.63108501 C1412.36238227 -0.64827214 1418.33467241 -0.63973794 1424.30731127 -0.62069988 C1426.72310481 -0.6170982 1429.13892839 -0.62206631 1431.55468341 -0.63617622 C1434.81150061 -0.65400796 1438.06678378 -0.64156906 1441.32355005 -0.62099248 C1442.74712486 -0.63980906 1442.74712486 -0.63980906 1444.19945877 -0.65900577 C1446.57333675 -0.62657368 1448.69377566 -0.56151665 1451 0 C1453.55618123 2.85558825 1454 4.18407165 1454 8 C1453.34 8 1452.68 8 1452 8 C1451.99576806 9.2102053 1451.99153612 10.42041059 1451.98717594 11.66728878 C1451.88660031 40.36547003 1451.78091033 69.06362941 1451.66888306 97.76176819 C1451.65511272 101.29047878 1451.64138574 104.81918953 1451.62768555 108.34790039 C1451.62495724 109.05043255 1451.62222894 109.75296471 1451.61941796 110.47678573 C1451.57528766 121.86688736 1451.53467312 133.25699897 1451.49534739 144.64711808 C1451.45494744 156.32581651 1451.41071907 168.00449572 1451.36312145 179.68316704 C1451.3364943 186.24651479 1451.31164066 192.80985878 1451.29092598 199.37322807 C1451.2713989 205.54302553 1451.24726714 211.71278735 1451.21950912 217.8825531 C1451.21011779 220.15421975 1451.20245008 222.42589423 1451.19658089 224.69757271 C1451.18835493 227.78450024 1451.17408845 230.87134045 1451.15821838 233.95823669 C1451.15724028 234.8696967 1451.15626217 235.78115671 1451.15525442 236.72023672 C1451.11412121 242.88587879 1451.11412121 242.88587879 1450 244 C1449.90010364 246.42619594 1449.86557938 248.82398318 1449.87301636 251.25073242 C1449.87145637 252.01858912 1449.86989638 252.78644583 1449.86828911 253.57757092 C1449.86427612 256.17022261 1449.8674699 258.76281654 1449.87060547 261.35546875 C1449.86925156 263.20618728 1449.86747169 265.05690554 1449.86529541 266.90762329 C1449.86071984 271.94879944 1449.86251114 276.98995522 1449.8656745 282.03113174 C1449.86819746 287.29443672 1449.86586074 292.55773989 1449.86428833 297.82104492 C1449.86246645 306.6616243 1449.86487343 315.50219533 1449.86962891 324.34277344 C1449.87507156 334.57938016 1449.87330892 344.81596697 1449.8678025 355.0525732 C1449.8632719 363.82451263 1449.86262056 372.59644605 1449.86524117 381.36838627 C1449.86680424 386.61492807 1449.8669969 391.8614605 1449.86370468 397.10800171 C1449.86082674 402.03924878 1449.86280024 406.97047005 1449.86859894 411.90171432 C1449.86992695 413.71703422 1449.86953173 415.53235627 1449.86733627 417.34767532 C1449.86462637 419.81490257 1449.86800391 422.28204577 1449.87301636 424.74926758 C1449.87078564 425.4771709 1449.86855491 426.20507421 1449.86625659 426.95503521 C1449.59240637 430.26032547 1449.59240637 430.26032547 1451 433 C1451.09636838 434.78427187 1451.12187453 436.57239653 1451.12025452 438.35926819 C1451.12162918 439.52179611 1451.12300385 440.68432404 1451.12442017 441.88208008 C1451.12082489 443.16888672 1451.11722961 444.45569336 1451.11352539 445.78149414 C1451.11324352 447.14123024 1451.11340125 448.5009665 1451.1139679 449.86070251 C1451.11425587 453.56301778 1451.10835912 457.26530092 1451.10139394 460.96760869 C1451.09516043 464.83268781 1451.0945566 468.69776758 1451.09336853 472.56285095 C1451.09025521 479.88684682 1451.0820418 487.21082784 1451.07201904 494.53481716 C1451.06085794 502.87083448 1451.05534746 511.20685249 1451.05032361 519.54287541 C1451.03985919 536.69525888 1451.02225973 553.84762787 1451 571 C1450.34 571 1449.68 571 1449 571 C1448.5978125 571.928125 1448.5978125 571.928125 1448.1875 572.875 C1447 575 1447 575 1444 577 C1442.68 577 1441.36 577 1440 577 C1439.67 578.32 1439.34 579.64 1439 581 C1438.34 581 1437.68 581 1437 581 C1437.103125 581.66 1437.20625 582.32 1437.3125 583 C1436.92071634 586.76112317 1435.45001502 588.76546899 1433.37890625 591.86328125 C1431.28649637 595.10562744 1429.67475598 598.52643204 1428 602 C1427.34 602 1426.68 602 1426 602 C1425.87625 603.11375 1425.87625 603.11375 1425.75 604.25 C1424.8373439 607.59640572 1423.46714711 608.60334281 1421 611 C1420.01232824 612.75232087 1419.02566044 614.50540036 1418.06640625 616.2734375 C1416.44354076 618.900934 1414.2027155 620.85235239 1412 623 C1411.38125 623.969375 1410.7625 624.93875 1410.125 625.9375 C1407.9169478 629.11969287 1405.64255519 631.136301 1402.6640625 633.55078125 C1400.7880754 635.0893902 1400.7880754 635.0893902 1398.875 637.75 C1396.74085792 640.31097049 1395.05816073 640.8428581 1392 642 C1391.67 642.99 1391.34 643.98 1391 645 C1388.4375 646.1875 1388.4375 646.1875 1386 647 C1386 647.66 1386 648.32 1386 649 C1385.01 649 1384.02 649 1383 649 C1382.67 649.99 1382.34 650.98 1382 652 C1380.28515625 653.140625 1380.28515625 653.140625 1378.0625 654.25 C1374.59710544 656.04756901 1371.49345334 658.03239043 1368.359375 660.35546875 C1363.22319173 663.98475331 1357.96645505 666.6150778 1352.1875 669.0625 C1351.19339111 669.48732666 1350.19928223 669.91215332 1349.17504883 670.34985352 C1326.95137653 679.60311379 1304.98729203 683.67605103 1281 683 C1281.020625 684.27875 1281.04125 685.5575 1281.0625 686.875 C1281.125 690.75 1281.125 690.75 1280 693 C1279.34 693 1278.68 693 1278 693 C1278.02320313 693.91523437 1278.04640625 694.83046875 1278.0703125 695.7734375 C1278.08835937 696.96195313 1278.10640625 698.15046875 1278.125 699.375 C1278.14820313 700.55835938 1278.17140625 701.74171875 1278.1953125 702.9609375 C1278 706 1278 706 1276 708 C1275.61550947 709.90744816 1275.61550947 709.90744816 1275.5 712 C1275.22222222 715.77777778 1275.22222222 715.77777778 1273 718 C1272.31060191 720.32671854 1271.64533078 722.66067594 1271 725 C1270.37530495 726.35350594 1269.7283669 727.69934483 1269 729 C1268.34 729 1267.68 729 1267 729 C1266.896875 729.886875 1266.79375 730.77375 1266.6875 731.6875 C1265.98284093 735.0826755 1265.0445434 737.21942098 1263 740 C1262.34 740 1261.68 740 1261 740 C1260.71125 740.5775 1260.4225 741.155 1260.125 741.75 C1259.08333333 743.83333333 1258.04166667 745.91666667 1257 748 C1256.34 748 1255.68 748 1255 748 C1255 748.99 1255 749.98 1255 751 C1253.625 752.6875 1253.625 752.6875 1252 754 C1251.34 754 1250.68 754 1250 754 C1249.7421875 754.58136719 1249.484375 755.16273438 1249.21875 755.76171875 C1245.56245558 762.47664408 1238.76415478 767.14005058 1232.53125 771.2890625 C1230.01880762 772.94039695 1230.01880762 772.94039695 1227.84375 774.7109375 C1213.35138445 785.98844731 1190.51804716 793.36427518 1172.16015625 793.265625 C1170.94965858 793.26849518 1170.94965858 793.26849518 1169.71470642 793.27142334 C1168.021471 793.27277388 1166.32822482 793.26915729 1164.63500977 793.26074219 C1162.07218684 793.25004045 1159.51006698 793.26066892 1156.94726562 793.2734375 C1148.77436362 793.28128951 1140.92490539 793.24574976 1133 791 C1132.30511475 790.81244141 1131.61022949 790.62488281 1130.89428711 790.43164062 C1128.89462875 789.8670312 1126.91624411 789.25875265 1124.9375 788.625 C1123.90290649 788.29628906 1123.90290649 788.29628906 1122.84741211 787.9609375 C1117.71597825 786.29858247 1112.8059945 784.4453201 1108 782 C1107.28972656 781.64421875 1106.57945313 781.2884375 1105.84765625 780.921875 C1100.38212468 778.04022391 1095.47923497 774.55342172 1090.53125 770.86328125 C1088.49481232 769.36423685 1086.4501577 767.97111936 1084.3125 766.625 C1083.1678125 765.820625 1083.1678125 765.820625 1082 765 C1082 764.34 1082 763.68 1082 763 C1081.443125 762.79375 1080.88625 762.5875 1080.3125 762.375 C1077.71729239 760.83190358 1076.15950158 758.94580325 1074.3046875 756.58984375 C1072.8291978 754.73285361 1072.8291978 754.73285361 1070.1875 752.25 C1068 750 1068 750 1068 748 C1067.34 748 1066.68 748 1066 748 C1064.2734375 745.6640625 1064.2734375 745.6640625 1062.375 742.625 C1061.42753906 741.12839844 1061.42753906 741.12839844 1060.4609375 739.6015625 C1059 737 1059 737 1059 735 C1058.34 735 1057.68 735 1057 735 C1056.731875 734.29875 1056.46375 733.5975 1056.1875 732.875 C1055.03497478 729.97507245 1055.03497478 729.97507245 1053.5625 727.1875 C1052.33756747 724.68863764 1051.32800049 722.29081843 1050.375 719.6875 C1049.3814547 716.24295658 1049.3814547 716.24295658 1048 715 C1047.85884839 712.32941149 1047.95752893 709.67567762 1048 707 C1047.34 707 1046.68 707 1046 707 C1044.85922343 703.57767028 1044.90184883 700.91326783 1044.9375 697.3125 C1044.94652344 696.13300781 1044.95554687 694.95351563 1044.96484375 693.73828125 C1044.97644531 692.83464844 1044.98804688 691.93101562 1045 691 C1044.34 691 1043.68 691 1043 691 C1042.67 688.69 1042.34 686.38 1042 684 C1032.40341435 683.97684711 1022.80683829 683.95906984 1013.21023083 683.94818783 C1008.75432029 683.94296547 1004.29842885 683.93587951 999.8425293 683.92456055 C995.5437177 683.91370875 991.24492447 683.90771828 986.94610023 683.90512276 C985.3046267 683.90327266 983.66315419 683.89965996 982.02168846 683.89426994 C979.72561836 683.88702912 977.42962457 683.88601035 975.13354492 683.88647461 C973.82560471 683.884254 972.51766449 683.88203339 971.17008972 683.87974548 C967.97492823 683.85278009 967.97492823 683.85278009 965 685 C965.03480469 686.91425781 965.03480469 686.91425781 965.0703125 688.8671875 C965.08906829 690.5364525 965.10726869 692.2057238 965.125 693.875 C965.14175781 694.71675781 965.15851562 695.55851563 965.17578125 696.42578125 C965.18544922 697.63427734 965.18544922 697.63427734 965.1953125 698.8671875 C965.21102295 699.98262939 965.21102295 699.98262939 965.22705078 701.12060547 C965 703 965 703 963 705 C962.61550947 706.90744816 962.61550947 706.90744816 962.5 709 C962.22222222 712.77777778 962.22222222 712.77777778 960 715 C959.55782847 716.59862014 959.11814957 718.19797366 958.69140625 719.80078125 C956.57172963 726.54302949 953.58720228 732.62190077 949 738 C947.75983331 740.6794645 947.75983331 740.6794645 947 743 C946.34 743 945.68 743 945 743 C945 743.99 945 744.98 945 746 C944.34 746 943.68 746 943 746 C942.773125 746.53625 942.54625 747.0725 942.3125 747.625 C940.54429911 750.82460161 938.46329797 753.29037223 936 756 C935.34 756 934.68 756 934 756 C933.67 756.99 933.34 757.98 933 759 C932.34 759 931.68 759 931 759 C930.73316406 759.60070312 930.46632813 760.20140625 930.19140625 760.8203125 C923.04493352 773.89484294 899.56730262 783.81166874 886 788 C885.09535004 788.2981662 885.09535004 788.2981662 884.17242432 788.60235596 C872.95932093 792.2776407 862.74197427 793.72857529 850.95605469 793.48706055 C848.47280103 793.43695115 845.9915308 793.42551584 843.5078125 793.41992188 C835.47649502 793.36411168 827.79667372 793.1146927 820 791 C818.81881592 790.70452271 818.81881592 790.70452271 817.61376953 790.40307617 C799.01590969 785.59996376 783.15848251 777.59811935 768.828125 764.63671875 C767.09718732 763.08701172 765.31659714 761.63483557 763.5 760.1875 C762.675 759.465625 761.85 758.74375 761 758 C761 757.34 761 756.68 761 756 C760.01 755.67 759.02 755.34 758 755 C755 751.55555556 755 751.55555556 755 749 C754.34 749 753.68 749 753 749 C751.6273318 747.02678947 750.29572383 745.02456848 749 743 C748.34 742.34 747.68 741.68 747 741 C747 739.68 747 738.36 747 737 C746.01 736.67 745.02 736.34 744 736 C744 734.68 744 733.36 744 732 C743.01 731.67 742.02 731.34 741 731 C741 729.35 741 727.7 741 726 C740.01 725.67 739.02 725.34 738 725 C737 722.4375 737 722.4375 736 719 C735.484375 717.80375 734.96875 716.6075 734.4375 715.375 C732.68227124 710.8465098 732.50983401 706.35663244 732.30859375 701.5390625 C732.2445581 698.83347242 732.2445581 698.83347242 730 697 C729.67 692.71 729.34 688.42 729 684 C488.43 683.67 247.86 683.34 0 683 C0 641.42 0 599.84 0 557 C470.58 557 941.16 557 1426 557 C1426 379.79 1426 202.58 1426 20 C955.42 20 484.84 20 0 20 C0 13.4 0 6.8 0 0 Z " fill="#321310" transform="translate(0,0)"/>
<path d="M0 0 C266.31 0 532.62 0 807 0 C804.81940155 2.18059845 802.61342674 3.20991138 799.84716797 4.51025391 C772.90308823 17.22635394 752.45228601 39.20517823 742.3203125 67.43359375 C739.96924265 74.54923563 738.4747167 81.62641651 737 89 C494.12 89 251.24 89 1 89 C-3.87747781 59.73513314 0 29.66853927 0 0 Z " fill="#998785" transform="translate(0,573)"/>
<path d="M0 0 C18.15 0 36.3 0 55 0 C61.87674011 18.33797364 61.87674011 18.33797364 64.6640625 26.6484375 C65.31241601 28.56494229 65.96077223 30.48144616 66.60913086 32.39794922 C66.93847626 33.37471619 67.26782166 34.35148315 67.60714722 35.35784912 C72.96109149 51.22817726 78.37361973 67.07698765 83.9375 82.875 C84.19243225 83.60209167 84.4473645 84.32918335 84.71002197 85.07830811 C85.41678321 87.09240738 86.12750268 89.105056 86.83984375 91.1171875 C87.23550537 92.23722168 87.63116699 93.35725586 88.03881836 94.51123047 C88.77049865 96.90545574 88.77049865 96.90545574 90 98 C90.31240631 97.05025299 90.62481262 96.10050598 90.94668579 95.12197876 C93.9171082 86.09174939 96.88790928 77.06164468 99.8590641 68.03165627 C101.38588254 63.39128215 102.91257584 58.75086695 104.43896484 54.11035156 C105.91700084 49.61685514 107.39538944 45.12347487 108.87400436 40.63016891 C109.43296785 38.9313594 109.9918125 37.23251078 110.55052567 35.53361893 C112.10367838 30.81105767 113.65970612 26.08946082 115.21894073 21.36890411 C116.0452931 18.86262883 116.86741137 16.35498319 117.68963623 13.84735107 C118.23613608 12.18903703 118.78278231 10.53077121 119.32958984 8.87255859 C119.71002158 7.70736159 119.71002158 7.70736159 120.09813881 6.51862526 C121.88637945 1.11362055 121.88637945 1.11362055 123 0 C124.36608326 -0.09535213 125.73705455 -0.1218867 127.10646057 -0.12025452 C127.99132141 -0.12162918 128.87618225 -0.12300385 129.78785706 -0.12442017 C131.25520546 -0.11902725 131.25520546 -0.11902725 132.75219727 -0.11352539 C133.7764682 -0.11367142 134.80073914 -0.11381744 135.85604858 -0.1139679 C139.25952229 -0.11326828 142.66294204 -0.10547363 146.06640625 -0.09765625 C148.41910268 -0.09579224 150.7717995 -0.09436826 153.12449646 -0.09336853 C159.33056705 -0.08954199 165.5366144 -0.07971055 171.74267578 -0.06866455 C178.06998378 -0.05845334 184.39729552 -0.05387154 190.72460938 -0.04882812 C203.14974982 -0.0380884 215.57487298 -0.02101036 228 0 C228.95068198 3.79176232 229.90063304 7.58370699 230.84996033 11.37580872 C231.32843661 13.28647981 231.80746113 15.19701358 232.28649902 17.10754395 C234.50570946 25.97421248 236.65917758 34.85413394 238.7578125 43.75 C239.63826977 47.4816643 240.53031988 51.21034769 241.4296875 54.9375 C244.36576812 67.10686968 247.24497339 79.28596941 249.99584961 91.4987793 C250.22925049 92.52398682 250.46265137 93.54919434 250.703125 94.60546875 C251.00718262 95.95354614 251.00718262 95.95354614 251.31738281 97.32885742 C252.07022255 100.27478718 253.00837331 103.12654828 254 106 C254.22139648 105.10917725 254.44279297 104.21835449 254.67089844 103.30053711 C255.51234125 99.91747293 256.35493284 96.5346988 257.19824219 93.15209961 C257.55936232 91.70266565 257.92005624 90.25312542 258.28027344 88.8034668 C260.75611382 78.84132136 263.33390466 68.91294772 266 59 C266.81708795 55.91786691 267.62766572 52.8340457 268.4375 49.75 C268.74989624 48.56349854 268.74989624 48.56349854 269.06860352 47.35302734 C270.1251819 43.33858494 271.17679141 39.3229504 272.21875 35.3046875 C275.30006228 23.47323842 278.638498 11.76525699 282 0 C296.52 0 311.04 0 326 0 C328.31661458 7.52899739 330.55973157 14.87217288 332.375 22.5 C334.07286596 29.46703633 335.92749654 36.36674771 337.9375 43.25 C340.42721064 51.79071358 342.626642 60.38130467 344.73876953 69.02246094 C346.64669824 76.76219544 348.7762669 84.42070778 351.08398438 92.05078125 C352.56585013 97.04955455 353.49385622 101.80756032 354 107 C354.66 107 355.32 107 356 107 C356.10957031 105.7521875 356.21914063 104.504375 356.33203125 103.21875 C356.96879852 97.52007192 358.30108058 92.05620411 359.6875 86.5 C360.23452642 84.26566207 360.78139717 82.03128602 361.328125 79.796875 C361.60720703 78.66443359 361.88628906 77.53199219 362.17382812 76.36523438 C363.45039475 71.16541333 364.69298486 65.95756636 365.9375 60.75 C367.54617717 54.03535911 369.16291182 47.32276651 370.79296875 40.61328125 C371.40382646 38.096398 372.01450411 35.57947104 372.625 33.0625 C372.92092041 31.84304688 373.21684082 30.62359375 373.52172852 29.3671875 C375.39687821 21.60315099 377.20059496 13.82811971 378.84619141 6.01196289 C379.89672354 1.10327646 379.89672354 1.10327646 381 0 C382.65738443 -0.09346915 384.31874644 -0.11744977 385.97875977 -0.11352539 C387.03978409 -0.11344986 388.10080841 -0.11337433 389.19398499 -0.11329651 C390.348134 -0.10813522 391.50228302 -0.10297394 392.69140625 -0.09765625 C394.4538694 -0.09553383 394.4538694 -0.09553383 396.25193787 -0.09336853 C400.02215064 -0.08774992 403.79230504 -0.07519426 407.5625 -0.0625 C410.11132727 -0.0574874 412.66015547 -0.05292408 415.20898438 -0.04882812 C421.47267633 -0.03777444 427.73633399 -0.02101821 434 0 C430.4817818 12.71971196 426.69659888 25.34842285 422.77734375 37.94921875 C422.54302265 38.70279789 422.30870155 39.45637703 422.06727982 40.2327919 C420.11293813 46.51487257 418.15286099 52.79516093 416.19195557 59.07519531 C414.48819514 64.5322541 412.78697224 69.99009359 411.08984375 75.44921875 C410.85783138 76.19522717 410.62581902 76.94123558 410.38677597 77.70985031 C407.60950817 86.65131018 404.91093851 95.60422524 402.46983337 104.64433289 C401.02043584 110.0083867 399.33028988 115.2556923 397.5 120.5 C395.31716106 126.89331362 393.30081752 133.28436594 391.5625 139.8125 C388.56895163 151.0470048 384.73253265 161.99219183 381 173 C365.16 173 349.32 173 333 173 C332.0925 169.349375 331.185 165.69875 330.25 161.9375 C328.2700617 154.00077439 326.24785617 146.0811549 324.1171875 138.18359375 C322.60376728 132.54872993 321.14980544 126.8982943 319.6875 121.25 C319.3894043 120.09951172 319.09130859 118.94902344 318.78417969 117.76367188 C317.2291851 111.758975 315.67857901 105.75317273 314.1328125 99.74609375 C313.52628177 97.39316726 312.91951555 95.04030146 312.3125 92.6875 C312.02133301 91.55715332 311.73016602 90.42680664 311.43017578 89.26220703 C309.63445023 82.3293686 307.74212873 75.44522025 305.62890625 68.6015625 C304.99227471 65.96804321 304.87735709 63.69814404 305 61 C304.34 61 303.68 61 303 61 C302.87850586 62.13646973 302.75701172 63.27293945 302.63183594 64.44384766 C302.05624654 69.02706313 301.02926094 73.42658247 299.890625 77.8984375 C299.5775943 79.14918564 299.5775943 79.14918564 299.25823975 80.42520142 C298.81664696 82.18555961 298.37278074 83.9453489 297.92675781 85.70458984 C297.26097201 88.3317057 296.60250804 90.96056745 295.9453125 93.58984375 C293.8956363 101.7533791 291.77953937 109.89078377 289.49609375 117.9921875 C286.71634098 127.85746789 284.26162893 137.79839431 281.8125 147.75 C280.94679252 151.26631975 280.07784166 154.78181597 279.20703125 158.296875 C278.91793633 159.47814972 278.91793633 159.47814972 278.6230011 160.68328857 C278.4390831 161.42556702 278.2551651 162.16784546 278.06567383 162.93261719 C277.90754715 163.57559753 277.74942047 164.21857788 277.58650208 164.88104248 C276.82881976 167.61845248 275.89819241 170.30542278 275 173 C259.16 173 243.32 173 227 173 C225.25704211 167.77112633 223.53159005 162.56857301 221.9140625 157.3046875 C221.35779175 155.50064453 221.35779175 155.50064453 220.7902832 153.66015625 C220.40573975 152.41105469 220.02119629 151.16195312 219.625 149.875 C217.26503849 142.22325985 214.90303124 134.57751483 212.3125 127 C210.04074564 120.31745108 208.13655237 113.54908038 206.22973633 106.75585938 C204.77833785 101.61892385 203.22783928 96.55060714 201.5 91.5 C199.16653903 84.67163505 197.18511007 77.76830979 195.22827148 70.82373047 C193.56332361 64.92959138 191.81273865 59.07591755 189.96484375 53.23632812 C185.1092996 37.88604773 180.50230083 22.45720793 176 7 C172.37110584 15.53923758 168.99438719 24.15231147 165.73828125 32.83984375 C165.23454465 34.17905708 164.73061222 35.51819676 164.22650146 36.85726929 C163.14978202 39.71856436 162.07437084 42.58034619 161.00003052 45.4425354 C159.27672017 50.03366644 157.55056238 54.62372372 155.82397461 59.21362305 C154.01844418 64.01378079 152.21312251 68.81401654 150.40882874 73.61463928 C146.42985038 84.20118609 142.44437571 94.78526173 138.453125 105.3671875 C137.91829813 106.78532172 137.38347757 108.20345831 136.84866333 109.62159729 C135.78382499 112.44513374 134.71897316 115.2686651 133.65411377 118.0921936 C133.39138924 118.78883244 133.1286647 119.48547127 132.85797882 120.20322037 C132.32799571 121.6085156 131.79800203 123.01380684 131.26799774 124.41909409 C124.94529004 141.18417311 118.63745988 157.95468678 112.36039162 174.73691368 C111.40690746 177.28595024 110.45310168 179.83486621 109.49919128 182.38374329 C108.87307047 184.05685166 108.24695654 185.7299626 107.62084961 187.40307617 C107.16032338 188.63369955 107.16032338 188.63369955 106.69049358 189.889184 C104.87041979 194.75373094 103.05299266 199.61925697 101.23747253 204.4855051 C100.11941311 207.48073005 98.99917004 210.47513485 97.87836075 213.46933174 C97.35620835 214.86576513 96.83503321 216.26256435 96.31487656 217.65974236 C95.6055483 219.56477798 94.89260176 221.46846521 94.17944336 223.37207031 C93.7804332 224.44080383 93.38142303 225.50953735 92.97032166 226.61065674 C92 229 92 229 91 230 C89.31198015 230.09353163 87.62004793 230.11744791 85.92944336 230.11352539 C84.84839828 230.11344986 83.76735321 230.11337433 82.65354919 230.11329651 C80.889515 230.10555458 80.889515 230.10555458 79.08984375 230.09765625 C77.89267227 230.0962413 76.69550079 230.09482635 75.46205139 230.09336853 C71.62050934 230.08774979 67.77902457 230.07519411 63.9375 230.0625 C61.34049563 230.05748741 58.74349035 230.05292409 56.14648438 230.04882812 C49.76430321 230.03777427 43.3821557 230.02101792 37 230 C37.59630846 226.6127187 38.44429728 223.60600403 39.76245117 220.43188477 C40.12340378 219.55649551 40.48435638 218.68110626 40.85624695 217.77919006 C41.24786514 216.84272141 41.63948334 215.90625275 42.04296875 214.94140625 C42.65208855 213.4702964 42.65208855 213.4702964 43.27351379 211.96946716 C44.57392507 208.83202795 45.88071534 205.69728916 47.1875 202.5625 C48.04792498 200.48779561 48.90795508 198.41292741 49.76757812 196.33789062 C50.18725861 195.32745697 50.60693909 194.31702332 51.03933716 193.27597046 C51.8713646 191.27024536 52.70039359 189.26327365 53.52633667 187.2550354 C55.27117252 183.03427583 57.03151965 178.85188388 59.05712891 174.75732422 C59.35581375 174.13566879 59.6544986 173.51401337 59.9622345 172.8735199 C60.7254137 171.30704095 61.52360389 169.75774168 62.32543945 168.21069336 C63.35512133 163.30973558 61.72050974 159.60397595 60 155 C59.69325851 154.1638768 59.38651703 153.3277536 59.07048035 152.46629333 C58.06411158 149.79352113 57.01973573 147.13835631 55.96484375 144.484375 C55.57420242 143.49184723 55.1835611 142.49931946 54.78108215 141.47671509 C53.50354398 138.23302189 52.22048113 134.99154371 50.9375 131.75 C50.0369874 129.46583392 49.13692904 127.18148872 48.23730469 124.89697266 C46.39198424 120.21163772 44.54496595 115.52697769 42.69677734 110.84277344 C39.06674191 101.63771143 35.46064904 92.42331363 31.85757446 83.20767212 C30.75146379 80.37874372 29.64472943 77.55006002 28.5378418 74.72143555 C24.86357632 65.33071707 21.19439333 55.93803145 17.53125 46.54296875 C17.16839905 45.61248718 16.8055481 44.68200562 16.43170166 43.72332764 C14.72012191 39.33398644 13.00924051 34.94437582 11.29980469 30.55419922 C10.68432527 28.97490353 10.06876763 27.39563832 9.453125 25.81640625 C9.16177673 25.06820618 8.87042847 24.3200061 8.57025146 23.5491333 C7.14036782 19.88570584 5.69420298 16.22999474 4.21679688 12.58544922 C3.93519714 11.88959213 3.65359741 11.19373505 3.36346436 10.47679138 C2.5981495 8.59117604 1.82805394 6.70750302 1.05761719 4.82397461 C0 2 0 2 0 0 Z " fill="#33130F" transform="translate(513,227)"/>
<path d="M0 0 C4.16460651 3.4861032 7.61229721 7.44071151 11.0625 11.625 C11.3925 6.015 11.7225 0.405 12.0625 -5.375 C29.2225 -5.375 46.3825 -5.375 64.0625 -5.375 C64.0625 51.715 64.0625 108.805 64.0625 167.625 C46.9025 167.625 29.7425 167.625 12.0625 167.625 C11.7325 161.685 11.4025 155.745 11.0625 149.625 C10.258125 150.800625 9.45375 151.97625 8.625 153.1875 C0.88000479 163.42971329 -11.29407381 169.88686577 -23.86328125 172.15234375 C-48.43887375 175.49452169 -70.47361105 170.88137994 -90.8125 156.75 C-109.81404683 142.07215844 -121.60657269 121.02389063 -125.47265625 97.34765625 C-125.76968234 94.09710311 -125.88011428 90.88881263 -125.9375 87.625 C-125.99995871 86.08593582 -126.06246197 84.54687346 -126.125 83.0078125 C-126.93537643 56.58283071 -118.33936937 33.2690852 -100.140625 13.86328125 C-75.13774628 -11.53857957 -30.62860413 -22.76309525 0 0 Z " fill="#33140F" transform="translate(435.9375,232.375)"/>
<path d="M0 0 C17.49 0 34.98 0 53 0 C55.35762785 9.4305114 57.69701925 18.85527212 59.9375 28.3125 C61.72521234 35.81647771 63.56872518 43.29807862 65.5625 50.75 C68.00425074 59.88201163 70.1949753 69.06545544 72.35302734 78.26806641 C73.03164658 81.13363215 73.72684235 83.99479474 74.42578125 86.85546875 C74.6578125 87.8108252 74.88984375 88.76618164 75.12890625 89.75048828 C75.57470903 91.58432988 76.02377388 93.41738247 76.4765625 95.24951172 C76.67636719 96.07596191 76.87617187 96.90241211 77.08203125 97.75390625 C77.25968018 98.47908447 77.4373291 99.2042627 77.62036133 99.95141602 C78 102 78 102 78 106 C78.66 106 79.32 106 80 106 C80.17789063 104.29263672 80.17789063 104.29263672 80.359375 102.55078125 C80.93422879 97.97305571 82.02715822 93.62952647 83.25 89.1875 C83.70593508 87.49614924 84.16165856 85.80474144 84.6171875 84.11328125 C84.84889648 83.25943848 85.08060547 82.4055957 85.31933594 81.52587891 C85.95699514 79.15958691 86.58005002 76.79017027 87.1953125 74.41796875 C89.44458396 65.74796447 91.80552254 57.11700829 94.25 48.5 C98.80672889 32.41221905 102.87006844 16.2020392 107 0 C121.52 0 136.04 0 151 0 C154.36972112 8.98592297 154.36972112 8.98592297 155.39453125 13.29296875 C155.73967773 14.71609375 155.73967773 14.71609375 156.09179688 16.16796875 C156.32962891 17.16441406 156.56746094 18.16085938 156.8125 19.1875 C158.72003981 27.00889131 160.73681949 34.77397 163 42.5 C165.47209456 50.95699602 167.64711677 59.46511203 169.73901367 68.0234375 C171.64685343 75.76284671 173.77636462 83.42103088 176.08398438 91.05078125 C177.56585013 96.04955455 178.49385622 100.80756032 179 106 C179.66 106 180.32 106 181 106 C181.12600586 104.84330811 181.25201172 103.68661621 181.38183594 102.49487305 C181.91149176 98.27540135 182.82612532 94.19577579 183.890625 90.08203125 C184.16784645 88.98580444 184.16784645 88.98580444 184.45066833 87.86743164 C184.84367067 86.31520351 185.23876946 84.76350484 185.63583374 83.21231079 C186.67435018 79.15438196 187.69718037 75.09248981 188.72265625 71.03125 C188.92377518 70.236689 189.1248941 69.44212799 189.33210754 68.62348938 C190.83052247 62.69734607 192.28521794 56.76219099 193.6875 50.8125 C193.87465576 50.01924316 194.06181152 49.22598633 194.25463867 48.40869141 C194.63269281 46.80412326 195.01037655 45.1994678 195.38769531 43.59472656 C196.60032317 38.45604677 197.8319512 33.3219119 199.0625 28.1875 C199.29606201 27.20950439 199.52962402 26.23150879 199.77026367 25.22387695 C201.78900624 16.80017014 203.89875273 8.40498909 206 0 C223.49 0 240.98 0 259 0 C255.63009765 13.47960942 255.63009765 13.47960942 253.9140625 18.8828125 C253.5432959 20.06037109 253.1725293 21.23792969 252.79052734 22.45117188 C252.40590332 23.66353516 252.0212793 24.87589844 251.625 26.125 C249.07705765 34.21535246 246.56711117 42.30464393 244.375 50.5 C242.40778199 57.83733006 240.03147723 65.00263663 237.58325195 72.19213867 C235.72533526 77.69227794 234.05717108 83.20352677 232.5625 88.8125 C230.80035073 95.38332367 228.76207313 101.81308049 226.5625 108.25 C222.28484108 120.81025452 218.42572308 133.49497981 214.5625 146.1875 C214.2456424 147.22547729 213.92878479 148.26345459 213.60232544 149.33288574 C212.69157515 152.31869491 211.78451343 155.3055961 210.87890625 158.29296875 C210.60320801 159.19724106 210.32750977 160.10151337 210.04345703 161.03318787 C209.66145142 162.29909508 209.66145142 162.29909508 209.27172852 163.59057617 C209.04937027 164.32426926 208.82701202 165.05796234 208.59791565 165.81388855 C207.95054188 168.18082978 207.48124452 170.59377738 207 173 C191.16 173 175.32 173 159 173 C156.95536732 167.54764618 155.29239279 162.55139736 154.0625 156.9375 C152.57244367 150.3880671 150.93785531 143.89868694 149.18359375 137.4140625 C147.66601355 131.78642449 146.21065006 126.14262786 144.75 120.5 C144.45536865 119.36183838 144.1607373 118.22367676 143.85717773 117.05102539 C142.9042305 113.36749347 141.95210202 109.68375047 141 106 C140.6497713 104.64598789 140.29951025 103.29198415 139.94921875 101.93798828 C139.05597803 98.48516562 138.16333025 95.03219016 137.27111816 91.57910156 C136.76529376 89.62168316 136.25911721 87.66435578 135.75292969 85.70703125 C135.43743164 84.485 135.12193359 83.26296875 134.796875 82.00390625 C134.49458984 80.83359863 134.19230469 79.66329102 133.88085938 78.45751953 C132.75815285 74.0507097 131.68342934 69.63265566 130.62207031 65.21069336 C130.20680578 63.04376024 130.20680578 63.04376024 129 62 C128.83918945 62.68400879 128.67837891 63.36801758 128.51269531 64.07275391 C127.76185954 67.25764715 127.00594339 70.44131535 126.25 73.625 C125.99734375 74.70007813 125.7446875 75.77515625 125.484375 76.8828125 C124.14897687 82.49148465 122.72336116 88.05064695 121.109375 93.5859375 C118.47716113 102.6576296 116.2568731 111.82910568 114 121 C111.43928769 131.40555712 108.85330704 141.77980403 105.85302734 152.06884766 C104.77863514 155.76064869 103.78903494 159.4686955 102.8125 163.1875 C101.9432523 166.49479702 101.08128726 169.75613822 100 173 C84.16 173 68.32 173 52 173 C45.20777027 152.62331081 45.20777027 152.62331081 42.9375 144.3125 C41.26383444 138.31884952 39.51423719 132.38826525 37.5 126.5 C35.63877727 121.03885744 33.99005976 115.55612326 32.4375 110 C29.44336093 99.32203229 26.19763246 88.72401109 22.9375 78.125 C22.68201385 77.29210449 22.42652771 76.45920898 22.16329956 75.60107422 C19.63319873 67.35803553 17.07376408 59.13112413 14.31640625 50.9609375 C12.37072805 45.18093473 10.61614359 39.3794689 9 33.5 C6.90964857 26.00622304 4.60831121 18.6464594 1.98046875 11.32421875 C1 8 1 8 0 0 Z " fill="#33130F" transform="translate(44,227)"/>
<path d="M0 0 C17.68871888 15.25671325 30.15226208 36.55454603 33 60 C33.13941422 63.85515439 33.13956495 67.70521565 33.125 71.5625 C33.12886719 72.59052734 33.13273437 73.61855469 33.13671875 74.67773438 C33.13478516 76.16950195 33.13478516 76.16950195 33.1328125 77.69140625 C33.13168457 78.59060791 33.13055664 79.48980957 33.12939453 80.41625977 C33 83 33 83 32 88 C-10.57 88 -53.14 88 -97 88 C-93.26811487 100.43961709 -89.2414534 107.80010193 -78.453125 114.7890625 C-71.40381659 118.26881665 -64.89462735 119.53377507 -57.0625 119.4375 C-56.18295654 119.42847656 -55.30341309 119.41945313 -54.3972168 119.41015625 C-42.93528712 119.10390931 -35.91267796 115.30490122 -28 107 C-27.01 105.515 -27.01 105.515 -26 104 C-23.74740601 103.63923645 -23.74740601 103.63923645 -20.90771484 103.65942383 C-19.84676605 103.65965042 -18.78581726 103.65987701 -17.69271851 103.66011047 C-15.96923691 103.68333626 -15.96923691 103.68333626 -14.2109375 103.70703125 C-12.45059677 103.71339851 -12.45059677 103.71339851 -10.6546936 103.71989441 C-6.89456546 103.73673024 -3.13496703 103.77439223 0.625 103.8125 C3.16926311 103.82754046 5.7135346 103.84122997 8.2578125 103.85351562 C14.50539005 103.88664983 20.75265719 103.93689794 27 104 C19.99400194 125.49294577 2.86473033 144.37183027 -17 155 C-22.18599199 157.47005763 -27.51987665 159.30043257 -33 161 C-34.56427734 161.50853516 -34.56427734 161.50853516 -36.16015625 162.02734375 C-58.92462842 168.40139596 -83.85422806 163.14218777 -104.03515625 151.81640625 C-108.3217828 149.19021212 -112.17764363 146.25608136 -116 143 C-116.73734375 142.40703125 -117.4746875 141.8140625 -118.234375 141.203125 C-134.54943023 127.5884927 -144.62577678 107.73899789 -148 87 C-148.40502963 82.19839172 -148.47783984 77.44189996 -148.4375 72.625 C-148.43065186 71.35930176 -148.42380371 70.09360352 -148.41674805 68.78955078 C-148.17951385 54.94111571 -145.41323499 43.35766626 -139 31 C-138.55914063 30.09894531 -138.11828125 29.19789063 -137.6640625 28.26953125 C-133.98257096 21.05909616 -129.37097433 15.03672324 -124 9 C-123.32324219 8.22785156 -122.64648438 7.45570313 -121.94921875 6.66015625 C-111.57589077 -4.45551912 -98.16110043 -11.83127391 -84 -17 C-83.01515625 -17.3609375 -82.0303125 -17.721875 -81.015625 -18.09375 C-53.69817318 -26.06749269 -21.5903754 -17.94018023 0 0 Z " fill="#33130F" transform="translate(1333,241)"/>
<path d="M0 0 C44.38321879 -0.02748978 88.76643822 -0.05384962 133.1496582 -0.0793457 C134.45234925 -0.08009419 134.45234925 -0.08009419 135.78135729 -0.08085779 C228.81242054 -0.13427959 321.84348401 -0.18039898 414.8745575 -0.2117157 C416.94033023 -0.21241295 419.00610295 -0.21311021 421.07187568 -0.21380747 C464.43015057 -0.22841996 507.78842573 -0.24200364 551.14670131 -0.25439839 C572.92603508 -0.26062551 594.70536879 -0.26705038 616.48470245 -0.27366221 C619.77009377 -0.27465845 623.05548509 -0.27564904 626.34087641 -0.2766394 C676.94909787 -0.29194469 727.55731333 -0.31149886 778.16552734 -0.34332275 C779.25417924 -0.34400725 780.34283113 -0.34469174 781.46447247 -0.34539698 C799.01748011 -0.35645924 816.57048752 -0.36787713 834.1234949 -0.3793422 C884.66326435 -0.41234776 935.2030292 -0.44273662 985.74280834 -0.45569897 C986.78146747 -0.45596664 987.82012659 -0.45623432 988.89026023 -0.4565101 C1011.68784115 -0.46233806 1034.48542213 -0.46681273 1057.28300357 -0.47000491 C1066.45509452 -0.47131308 1075.62718544 -0.47281617 1084.79927635 -0.47438622 C1085.80314028 -0.47455335 1086.8070042 -0.47472049 1087.84128825 -0.47489269 C1120.22013139 -0.48038059 1152.59894029 -0.50175514 1184.9777696 -0.53141104 C1217.57717279 -0.56119658 1250.1765427 -0.57550681 1282.77595985 -0.56811994 C1287.2747007 -0.56710445 1291.77344156 -0.56626757 1296.27218246 -0.56553841 C1297.15411043 -0.565389 1298.0360384 -0.5652396 1298.94469146 -0.56508567 C1312.94345053 -0.56317794 1326.94213947 -0.57814376 1340.9408794 -0.60004931 C1354.68583796 -0.62121431 1368.43070508 -0.62474478 1382.1756722 -0.60915907 C1390.24713904 -0.6005479 1398.31831699 -0.60582319 1406.38975048 -0.63108501 C1412.36238227 -0.64827214 1418.33467241 -0.63973794 1424.30731127 -0.62069988 C1426.72310481 -0.6170982 1429.13892839 -0.62206631 1431.55468341 -0.63617622 C1434.81150061 -0.65400796 1438.06678378 -0.64156906 1441.32355005 -0.62099248 C1442.74712486 -0.63980906 1442.74712486 -0.63980906 1444.19945877 -0.65900577 C1446.57333675 -0.62657368 1448.69377566 -0.56151665 1451 0 C1453.55618123 2.85558825 1454 4.18407165 1454 8 C1453.34 8 1452.68 8 1452 8 C1451.99576806 9.2102053 1451.99153612 10.42041059 1451.98717594 11.66728878 C1451.88660031 40.36547003 1451.78091033 69.06362941 1451.66888306 97.76176819 C1451.65511272 101.29047878 1451.64138574 104.81918953 1451.62768555 108.34790039 C1451.62495724 109.05043255 1451.62222894 109.75296471 1451.61941796 110.47678573 C1451.57528766 121.86688736 1451.53467312 133.25699897 1451.49534739 144.64711808 C1451.45494744 156.32581651 1451.41071907 168.00449572 1451.36312145 179.68316704 C1451.3364943 186.24651479 1451.31164066 192.80985878 1451.29092598 199.37322807 C1451.2713989 205.54302553 1451.24726714 211.71278735 1451.21950912 217.8825531 C1451.21011779 220.15421975 1451.20245008 222.42589423 1451.19658089 224.69757271 C1451.18835493 227.78450024 1451.17408845 230.87134045 1451.15821838 233.95823669 C1451.15724028 234.8696967 1451.15626217 235.78115671 1451.15525442 236.72023672 C1451.11412121 242.88587879 1451.11412121 242.88587879 1450 244 C1449.90010364 246.42619594 1449.86557938 248.82398318 1449.87301636 251.25073242 C1449.87145637 252.01858912 1449.86989638 252.78644583 1449.86828911 253.57757092 C1449.86427612 256.17022261 1449.8674699 258.76281654 1449.87060547 261.35546875 C1449.86925156 263.20618728 1449.86747169 265.05690554 1449.86529541 266.90762329 C1449.86071984 271.94879944 1449.86251114 276.98995522 1449.8656745 282.03113174 C1449.86819746 287.29443672 1449.86586074 292.55773989 1449.86428833 297.82104492 C1449.86246645 306.6616243 1449.86487343 315.50219533 1449.86962891 324.34277344 C1449.87507156 334.57938016 1449.87330892 344.81596697 1449.8678025 355.0525732 C1449.8632719 363.82451263 1449.86262056 372.59644605 1449.86524117 381.36838627 C1449.86680424 386.61492807 1449.8669969 391.8614605 1449.86370468 397.10800171 C1449.86082674 402.03924878 1449.86280024 406.97047005 1449.86859894 411.90171432 C1449.86992695 413.71703422 1449.86953173 415.53235627 1449.86733627 417.34767532 C1449.86462637 419.81490257 1449.86800391 422.28204577 1449.87301636 424.74926758 C1449.87078564 425.4771709 1449.86855491 426.20507421 1449.86625659 426.95503521 C1449.59240637 430.26032547 1449.59240637 430.26032547 1451 433 C1451.09636838 434.78427187 1451.12187453 436.57239653 1451.12025452 438.35926819 C1451.12162918 439.52179611 1451.12300385 440.68432404 1451.12442017 441.88208008 C1451.12082489 443.16888672 1451.11722961 444.45569336 1451.11352539 445.78149414 C1451.11324352 447.14123024 1451.11340125 448.5009665 1451.1139679 449.86070251 C1451.11425587 453.56301778 1451.10835912 457.26530092 1451.10139394 460.96760869 C1451.09516043 464.83268781 1451.0945566 468.69776758 1451.09336853 472.56285095 C1451.09025521 479.88684682 1451.0820418 487.21082784 1451.07201904 494.53481716 C1451.06085794 502.87083448 1451.05534746 511.20685249 1451.05032361 519.54287541 C1451.03985919 536.69525888 1451.02225973 553.84762787 1451 571 C1450.34 571 1449.68 571 1449 571 C1448.5978125 571.928125 1448.5978125 571.928125 1448.1875 572.875 C1447 575 1447 575 1444 577 C1442.68 577 1441.36 577 1440 577 C1439.67 578.32 1439.34 579.64 1439 581 C1438.34 581 1437.68 581 1437 581 C1437.103125 581.66 1437.20625 582.32 1437.3125 583 C1436.92071634 586.76112317 1435.45001502 588.76546899 1433.37890625 591.86328125 C1431.28649637 595.10562744 1429.67475598 598.52643204 1428 602 C1427.34 602 1426.68 602 1426 602 C1425.87625 603.11375 1425.87625 603.11375 1425.75 604.25 C1424.8373439 607.59640572 1423.46714711 608.60334281 1421 611 C1420.01232824 612.75232087 1419.02566044 614.50540036 1418.06640625 616.2734375 C1416.44354076 618.900934 1414.2027155 620.85235239 1412 623 C1411.38125 623.969375 1410.7625 624.93875 1410.125 625.9375 C1407.9169478 629.11969287 1405.64255519 631.136301 1402.6640625 633.55078125 C1400.7880754 635.0893902 1400.7880754 635.0893902 1398.875 637.75 C1396.74085792 640.31097049 1395.05816073 640.8428581 1392 642 C1391.67 642.99 1391.34 643.98 1391 645 C1388.4375 646.1875 1388.4375 646.1875 1386 647 C1386 647.66 1386 648.32 1386 649 C1385.01 649 1384.02 649 1383 649 C1382.67 649.99 1382.34 650.98 1382 652 C1380.28515625 653.140625 1380.28515625 653.140625 1378.0625 654.25 C1374.59710544 656.04756901 1371.49345334 658.03239043 1368.359375 660.35546875 C1363.22319173 663.98475331 1357.96645505 666.6150778 1352.1875 669.0625 C1351.19339111 669.48732666 1350.19928223 669.91215332 1349.17504883 670.34985352 C1326.95137653 679.60311379 1304.98729203 683.67605103 1281 683 C1281.020625 684.27875 1281.04125 685.5575 1281.0625 686.875 C1281.125 690.75 1281.125 690.75 1280 693 C1279.34 693 1278.68 693 1278 693 C1278.02320313 693.91523437 1278.04640625 694.83046875 1278.0703125 695.7734375 C1278.08835937 696.96195313 1278.10640625 698.15046875 1278.125 699.375 C1278.14820313 700.55835938 1278.17140625 701.74171875 1278.1953125 702.9609375 C1278 706 1278 706 1276 708 C1275.61550947 709.90744816 1275.61550947 709.90744816 1275.5 712 C1275.22222222 715.77777778 1275.22222222 715.77777778 1273 718 C1272.31060191 720.32671854 1271.64533078 722.66067594 1271 725 C1270.37530495 726.35350594 1269.7283669 727.69934483 1269 729 C1268.34 729 1267.68 729 1267 729 C1266.896875 729.886875 1266.79375 730.77375 1266.6875 731.6875 C1265.98284093 735.0826755 1265.0445434 737.21942098 1263 740 C1262.34 740 1261.68 740 1261 740 C1260.71125 740.5775 1260.4225 741.155 1260.125 741.75 C1259.08333333 743.83333333 1258.04166667 745.91666667 1257 748 C1256.34 748 1255.68 748 1255 748 C1255 748.99 1255 749.98 1255 751 C1253.625 752.6875 1253.625 752.6875 1252 754 C1251.34 754 1250.68 754 1250 754 C1249.7421875 754.58136719 1249.484375 755.16273438 1249.21875 755.76171875 C1245.56245558 762.47664408 1238.76415478 767.14005058 1232.53125 771.2890625 C1230.01880762 772.94039695 1230.01880762 772.94039695 1227.84375 774.7109375 C1213.35138445 785.98844731 1190.51804716 793.36427518 1172.16015625 793.265625 C1170.94965858 793.26849518 1170.94965858 793.26849518 1169.71470642 793.27142334 C1168.021471 793.27277388 1166.32822482 793.26915729 1164.63500977 793.26074219 C1162.07218684 793.25004045 1159.51006698 793.26066892 1156.94726562 793.2734375 C1148.77436362 793.28128951 1140.92490539 793.24574976 1133 791 C1132.30511475 790.81244141 1131.61022949 790.62488281 1130.89428711 790.43164062 C1128.89462875 789.8670312 1126.91624411 789.25875265 1124.9375 788.625 C1123.90290649 788.29628906 1123.90290649 788.29628906 1122.84741211 787.9609375 C1117.71597825 786.29858247 1112.8059945 784.4453201 1108 782 C1107.28972656 781.64421875 1106.57945313 781.2884375 1105.84765625 780.921875 C1100.38212468 778.04022391 1095.47923497 774.55342172 1090.53125 770.86328125 C1088.49481232 769.36423685 1086.4501577 767.97111936 1084.3125 766.625 C1083.1678125 765.820625 1083.1678125 765.820625 1082 765 C1082 764.34 1082 763.68 1082 763 C1081.443125 762.79375 1080.88625 762.5875 1080.3125 762.375 C1077.71729239 760.83190358 1076.15950158 758.94580325 1074.3046875 756.58984375 C1072.8291978 754.73285361 1072.8291978 754.73285361 1070.1875 752.25 C1068 750 1068 750 1068 748 C1067.34 748 1066.68 748 1066 748 C1064.2734375 745.6640625 1064.2734375 745.6640625 1062.375 742.625 C1061.42753906 741.12839844 1061.42753906 741.12839844 1060.4609375 739.6015625 C1059 737 1059 737 1059 735 C1058.34 735 1057.68 735 1057 735 C1056.731875 734.29875 1056.46375 733.5975 1056.1875 732.875 C1055.03497478 729.97507245 1055.03497478 729.97507245 1053.5625 727.1875 C1052.33756747 724.68863764 1051.32800049 722.29081843 1050.375 719.6875 C1049.3814547 716.24295658 1049.3814547 716.24295658 1048 715 C1047.85884839 712.32941149 1047.95752893 709.67567762 1048 707 C1047.34 707 1046.68 707 1046 707 C1044.85922343 703.57767028 1044.90184883 700.91326783 1044.9375 697.3125 C1044.94652344 696.13300781 1044.95554687 694.95351563 1044.96484375 693.73828125 C1044.97644531 692.83464844 1044.98804688 691.93101562 1045 691 C1044.34 691 1043.68 691 1043 691 C1042.67 688.69 1042.34 686.38 1042 684 C1032.40341435 683.97684711 1022.80683829 683.95906984 1013.21023083 683.94818783 C1008.75432029 683.94296547 1004.29842885 683.93587951 999.8425293 683.92456055 C995.5437177 683.91370875 991.24492447 683.90771828 986.94610023 683.90512276 C985.3046267 683.90327266 983.66315419 683.89965996 982.02168846 683.89426994 C979.72561836 683.88702912 977.42962457 683.88601035 975.13354492 683.88647461 C973.82560471 683.884254 972.51766449 683.88203339 971.17008972 683.87974548 C967.97492823 683.85278009 967.97492823 683.85278009 965 685 C965.03480469 686.91425781 965.03480469 686.91425781 965.0703125 688.8671875 C965.08906829 690.5364525 965.10726869 692.2057238 965.125 693.875 C965.14175781 694.71675781 965.15851562 695.55851563 965.17578125 696.42578125 C965.18544922 697.63427734 965.18544922 697.63427734 965.1953125 698.8671875 C965.21102295 699.98262939 965.21102295 699.98262939 965.22705078 701.12060547 C965 703 965 703 963 705 C962.61550947 706.90744816 962.61550947 706.90744816 962.5 709 C962.22222222 712.77777778 962.22222222 712.77777778 960 715 C959.55782847 716.59862014 959.11814957 718.19797366 958.69140625 719.80078125 C956.57172963 726.54302949 953.58720228 732.62190077 949 738 C947.75983331 740.6794645 947.75983331 740.6794645 947 743 C946.34 743 945.68 743 945 743 C945 743.99 945 744.98 945 746 C944.34 746 943.68 746 943 746 C942.773125 746.53625 942.54625 747.0725 942.3125 747.625 C940.54429911 750.82460161 938.46329797 753.29037223 936 756 C935.34 756 934.68 756 934 756 C933.67 756.99 933.34 757.98 933 759 C932.34 759 931.68 759 931 759 C930.73316406 759.60070312 930.46632813 760.20140625 930.19140625 760.8203125 C923.04493352 773.89484294 899.56730262 783.81166874 886 788 C885.09535004 788.2981662 885.09535004 788.2981662 884.17242432 788.60235596 C872.95932093 792.2776407 862.74197427 793.72857529 850.95605469 793.48706055 C848.47280103 793.43695115 845.9915308 793.42551584 843.5078125 793.41992188 C835.47649502 793.36411168 827.79667372 793.1146927 820 791 C818.81881592 790.70452271 818.81881592 790.70452271 817.61376953 790.40307617 C799.01590969 785.59996376 783.15848251 777.59811935 768.828125 764.63671875 C767.09718732 763.08701172 765.31659714 761.63483557 763.5 760.1875 C762.675 759.465625 761.85 758.74375 761 758 C761 757.34 761 756.68 761 756 C760.01 755.67 759.02 755.34 758 755 C755 751.55555556 755 751.55555556 755 749 C754.34 749 753.68 749 753 749 C751.6273318 747.02678947 750.29572383 745.02456848 749 743 C748.34 742.34 747.68 741.68 747 741 C747 739.68 747 738.36 747 737 C746.01 736.67 745.02 736.34 744 736 C744 734.68 744 733.36 744 732 C743.01 731.67 742.02 731.34 741 731 C741 729.35 741 727.7 741 726 C740.01 725.67 739.02 725.34 738 725 C737 722.4375 737 722.4375 736 719 C735.484375 717.80375 734.96875 716.6075 734.4375 715.375 C732.68227124 710.8465098 732.50983401 706.35663244 732.30859375 701.5390625 C732.2445581 698.83347242 732.2445581 698.83347242 730 697 C729.67 692.71 729.34 688.42 729 684 C488.43 683.67 247.86 683.34 0 683 C0.33 681.68 0.66 680.36 1 679 C243.55 679 486.1 679 736 679 C736.33 683.29 736.66 687.58 737 692 C740.29899677 714.70157099 749.38743416 733.41023779 764 751 C764.44472656 751.59167969 764.88945313 752.18335938 765.34765625 752.79296875 C781.10580392 773.0809815 809.19597704 784.78800762 834 788 C866.92429949 790.31563802 895.31671763 782.12769917 920.7734375 760.94140625 C945.47025569 739.4075139 955.54651978 710.89524292 958 679 C988.36 679 1018.72 679 1050 679 C1050.66 685.27 1051.32 691.54 1052 698 C1059.73796453 730.49945103 1076.2621564 754.99279382 1104.3125 773.25 C1128.88191598 787.84183608 1159.18847266 792.45259985 1187.12255859 786.04711914 C1206.60744169 780.93365959 1222.90194412 771.12665368 1238 758 C1238.62390625 757.46117187 1239.2478125 756.92234375 1239.890625 756.3671875 C1260.96360445 736.77128605 1270.76691551 706.97826192 1272 679 C1273.90845703 678.94392578 1273.90845703 678.94392578 1275.85546875 678.88671875 C1321.12714767 677.30105876 1362.04908939 663.99608544 1394.58984375 631.40625 C1395.95846786 630.03984408 1397.34468992 628.68932553 1398.78125 627.39453125 C1413.50301273 613.84381783 1424.61938274 594.31098937 1431.37890625 575.6171875 C1432 574 1432 574 1433 573 C1436.3 573 1439.6 573 1443 573 C1443 385.23 1443 197.46 1443 4 C966.81 4 490.62 4 0 4 C0 2.68 0 1.36 0 0 Z " fill="#FDFDFD" transform="translate(0,0)"/>
<path d="M0 0 C12.00039216 8.70531241 20.14583847 20.30372729 23 35 C23 37.64 23 40.28 23 43 C6.5 43 -10 43 -27 43 C-27.99 40.36 -28.98 37.72 -30 35 C-33.52792092 31.54540769 -38.26158693 30.73419088 -43.0625 30.5 C-48.07018868 30.7160482 -51.00065926 32.00049445 -55 35 C-57.4135833 38.14815213 -57.46577663 41.11852805 -57 45 C-54.08243424 52.00215783 -47.67011856 54.14863775 -41 57 C-36.36875119 58.64171775 -31.63315187 59.94620542 -26.90307617 61.26889038 C-7.49629461 66.73206773 12.70017163 72.92027461 24 91 C29.98769382 103.37578055 31.2157499 117.63289351 27.4375 130.9375 C21.61249586 146.96644495 11.39100178 158.55159328 -4 166 C-24.88502345 175.00374424 -49.99450228 176.45430805 -71.5625 168.8125 C-87.25250081 162.36071182 -99.82974662 151.56802296 -107 136 C-109.70483461 128.98836027 -111 123.59704855 -111 116 C-94.17 116 -77.34 116 -60 116 C-56 125 -56 125 -56 127 C-48.41691889 130.93196798 -41.00850503 132.85613054 -32.546875 130.2421875 C-28.70529633 128.43522272 -26.24361106 126.68831016 -24 123 C-23.03272863 118.11527959 -23.39069798 114.1315609 -25.75 109.75 C-33.17609699 102.36253366 -44.87433497 99.50072952 -54.61199951 96.36126709 C-74.01722101 90.06177466 -94.02676773 83.3711668 -104.74609375 64.65234375 C-108.01815257 57.73107292 -109.55944006 52.02113297 -109.5 44.3125 C-109.49355469 43.434729 -109.48710938 42.55695801 -109.48046875 41.65258789 C-109.10126077 28.05972822 -103.13431535 17.54693433 -93.90625 7.78515625 C-69.63056709 -15.12721838 -27.84174972 -18.36102611 0 0 Z " fill="#33130F" transform="translate(1145,232)"/>
<path d="M0 0 C77.22 0 154.44 0 234 0 C231.30808852 2.69191148 228.0841039 3.9511593 224.6875 5.5625 C209.06190815 13.18332236 196.61049501 23.19866772 186 37 C185.3915625 37.78117188 184.783125 38.56234375 184.15625 39.3671875 C173.04367192 54.36916791 167.88758583 70.85793277 164 89 C132.98 89 101.96 89 70 89 C69.34 85.7 68.68 82.4 68 79 C63.98382164 61.4031029 55.76729645 45.62773857 44 32 C43.40960937 31.26523437 42.81921875 30.53046875 42.2109375 29.7734375 C31.99054472 17.46547513 19.03693841 9.91143236 4.86254883 2.97045898 C3 2 3 2 0 0 Z " fill="#998785" transform="translate(887,573)"/>
<path d="M0 0 C70.62 0 141.24 0 214 0 C196.56288882 36.81167916 170.70868161 65.53622589 131.984375 79.9140625 C126.70729429 81.78670175 121.37832806 83.44431886 116 85 C115.22317871 85.2273584 114.44635742 85.4547168 113.64599609 85.68896484 C99.23737966 89.74031777 84.8646128 89.43341924 70 89 C69.80627808 88.0107251 69.80627808 88.0107251 69.60864258 87.00146484 C65.5138123 66.2748274 57.8783213 48.10876579 44 32 C43.4328125 31.27683594 42.865625 30.55367187 42.28125 29.80859375 C32.79463044 18.17916319 19.7049301 10.36925273 6.44921875 3.7421875 C3 2 3 2 0 0 Z " fill="#998785" transform="translate(1201,573)"/>
<path d="M0 0 C10.88911141 8.62143791 18.74838602 22.79367818 20.80078125 36.44921875 C21.48060111 47.14802308 20.92040563 56.39476049 16.80078125 66.44921875 C16.38828125 67.46628906 15.97578125 68.48335937 15.55078125 69.53125 C8.43927274 85.26950321 -3.80424021 94.08866825 -19.375 100.50390625 C-31.87281545 104.68713079 -48.37635361 104.14862002 -60.19921875 98.44921875 C-61.19050781 97.97484375 -62.18179688 97.50046875 -63.203125 97.01171875 C-78.26210985 89.01103204 -87.7647621 76.30379928 -93.38110352 60.43310547 C-94.74530542 55.45749352 -94.79383292 50.64309747 -94.69921875 45.51171875 C-94.68713379 44.45774902 -94.67504883 43.4037793 -94.66259766 42.31787109 C-94.47021888 34.78711641 -93.66826451 28.23601233 -90.19921875 21.44921875 C-89.77511719 20.5984375 -89.35101562 19.74765625 -88.9140625 18.87109375 C-81.25709016 4.96483758 -69.35905266 -5.27517158 -54.421875 -10.52734375 C-34.74230392 -16.18026752 -16.31381091 -11.5036997 0 0 Z " fill="#998785" transform="translate(884.19921875,632.55078125)"/>
<path d="M0 0 C1.03125 0.721875 2.0625 1.44375 3.125 2.1875 C14.20648887 12.01629882 20.87273721 26.2693254 22.40625 40.8671875 C23.1080946 58.92230811 16.8105213 73.83958139 4.984375 87.29296875 C0.54922043 91.66887507 -4.49908302 94.55783084 -10 97.375 C-10.65234619 97.70927002 -11.30469238 98.04354004 -11.97680664 98.38793945 C-24.24248725 104.31841359 -40.46336691 105.45009645 -53.5 101.4375 C-70.46572551 94.66082211 -82.65504249 83.571301 -90.02734375 66.765625 C-94.79526594 53.20864141 -95.75200794 35.99937264 -89.54296875 22.78125 C-89.03378906 21.8634375 -88.52460937 20.945625 -88 20 C-87.48050781 19.0409375 -86.96101563 18.081875 -86.42578125 17.09375 C-78.71329305 4.00589124 -66.79052857 -6.116561 -52.09765625 -10.52734375 C-33.16342741 -14.79371561 -15.66230065 -11.61076802 0 0 Z " fill="#998785" transform="translate(1197,632)"/>
<path d="M0 0 C16.83 0 33.66 0 51 0 C51 56.76 51 113.52 51 172 C34.17 172 17.34 172 0 172 C0 115.24 0 58.48 0 0 Z " fill="#32130F" transform="translate(962,227)"/>
<path d="M0 0 C0.67675781 0.55171875 1.35351562 1.1034375 2.05078125 1.671875 C3.08138672 2.49945313 3.08138672 2.49945313 4.1328125 3.34375 C10.75429957 9.26890478 16.63000653 18.80069628 18.05078125 27.671875 C18.84041301 42.58306083 16.13732226 55.28384483 6.05078125 66.671875 C-2.39023035 75.25298638 -11.9819235 79.74776029 -24.08764648 80.10351562 C-37.3736318 80.14038274 -47.35265771 76.13538146 -56.94921875 66.671875 C-66.36652731 55.95313416 -68.9399025 44.1647257 -68.39453125 30.23828125 C-67.60956377 19.59298207 -61.78362687 9.10795004 -54.00390625 1.859375 C-37.97452575 -10.71268814 -16.86042855 -12.45267484 0 0 Z " fill="#FDA41D" transform="translate(429.94921875,277.328125)"/>
<path d="M0 0 C17.16 0 34.32 0 52 0 C52 12.87 52 25.74 52 39 C34.84 39 17.68 39 0 39 C0 26.13 0 13.26 0 0 Z " fill="#35150F" transform="translate(962,169)"/>
<path d="M0 0 C7.89497972 4.72377448 14.51651324 10.92282511 17.80078125 19.67578125 C18.29578125 22.64578125 18.29578125 22.64578125 18.80078125 25.67578125 C-6.93921875 25.67578125 -32.67921875 25.67578125 -59.19921875 25.67578125 C-55.4325491 13.12021575 -50.72386251 6.05815211 -39.19921875 -0.32421875 C-27.62653141 -5.92951084 -11.53673556 -5.31198589 0 0 Z " fill="#FDA31D" transform="translate(1295.19921875,268.32421875)"/>
</svg>
